<?xml version="1.0" encoding="UTF-8" standalone="no"?>
<!DOCTYPE svg PUBLIC "-//W3C//DTD SVG 1.1//EN"
 "http://www.w3.org/Graphics/SVG/1.1/DTD/svg11.dtd">
<!-- Generated by graphviz version 2.43.0 (0)
 -->
<!-- Title: code&#45;review&#45;process Pages: 1 -->
<svg width="434pt" height="310pt"
 viewBox="0.00 0.00 434.00 310.00" xmlns="http://www.w3.org/2000/svg" xmlns:xlink="http://www.w3.org/1999/xlink">
<g id="graph0" class="graph" transform="scale(1 1) rotate(0) translate(4 306)">
<title>code&#45;review&#45;process</title>
<polygon fill="cornsilk" stroke="transparent" points="-4,4 -4,-306 430,-306 430,4 -4,4"/>
<text text-anchor="middle" x="213" y="-6.8" font-family="Consolas" font-size="9.00">代码审核流程</text>
<g id="clust1" class="cluster">
<title>cluster0</title>
<path fill="cornsilk" stroke="transparent" d="M20,-242C20,-242 66,-242 66,-242 72,-242 78,-248 78,-254 78,-254 78,-282 78,-282 78,-288 72,-294 66,-294 66,-294 20,-294 20,-294 14,-294 8,-288 8,-282 8,-282 8,-254 8,-254 8,-248 14,-242 20,-242"/>
</g>
<g id="clust2" class="cluster">
<title>cluster1</title>
<path fill="cornsilk" stroke="cadetblue" d="M98,-26C98,-26 328,-26 328,-26 334,-26 340,-32 340,-38 340,-38 340,-282 340,-282 340,-288 334,-294 328,-294 328,-294 98,-294 98,-294 92,-294 86,-288 86,-282 86,-282 86,-38 86,-38 86,-32 92,-26 98,-26"/>
</g>
<g id="clust3" class="cluster">
<title>cluster2</title>
<path fill="cornsilk" stroke="transparent" d="M360,-242C360,-242 406,-242 406,-242 412,-242 418,-248 418,-254 418,-254 418,-282 418,-282 418,-288 412,-294 406,-294 406,-294 360,-294 360,-294 354,-294 348,-288 348,-282 348,-282 348,-254 348,-254 348,-248 354,-242 360,-242"/>
</g>
<!-- developer -->
<g id="node1" class="node">
<title>developer</title>
<ellipse fill="#b2df8a" stroke="#b2df8a" cx="43" cy="-268" rx="27" ry="18"/>
<text text-anchor="middle" x="43" y="-265.8" font-family="Consolas" font-size="9.00">开发者</text>
</g>
<!-- submitted -->
<g id="node2" class="node">
<title>submitted</title>
<path fill="#b2df8a" stroke="#b2df8a" d="M285,-286C285,-286 211,-286 211,-286 205,-286 199,-280 199,-274 199,-274 199,-262 199,-262 199,-256 205,-250 211,-250 211,-250 285,-250 285,-250 291,-250 297,-256 297,-262 297,-262 297,-274 297,-274 297,-280 291,-286 285,-286"/>
<text text-anchor="middle" x="248" y="-265.8" font-family="Consolas" font-size="9.00">提交代码到私有分支</text>
</g>
<!-- developer&#45;&gt;submitted -->
<g id="edge1" class="edge">
<title>developer&#45;&gt;submitted</title>
<path fill="none" stroke="cadetblue" d="M70.23,-268C109.7,-268 149.18,-268 188.66,-268"/>
<polygon fill="cadetblue" stroke="cadetblue" points="188.7,-271.5 198.7,-268 188.7,-264.5 188.7,-271.5"/>
</g>
<!-- reviewing -->
<g id="node3" class="node">
<title>reviewing</title>
<path fill="#a6cee3" stroke="#a6cee3" d="M228,-214C228,-214 198,-214 198,-214 192,-214 186,-208 186,-202 186,-202 186,-190 186,-190 186,-184 192,-178 198,-178 198,-178 228,-178 228,-178 234,-178 240,-184 240,-190 240,-190 240,-202 240,-202 240,-208 234,-214 228,-214"/>
<text text-anchor="middle" x="213" y="-193.8" font-family="Consolas" font-size="9.00">审核</text>
</g>
<!-- submitted&#45;&gt;reviewing -->
<g id="edge3" class="edge">
<title>submitted&#45;&gt;reviewing</title>
<path fill="none" stroke="cadetblue" d="M239.35,-249.7C235.36,-241.73 230.55,-232.1 226.13,-223.26"/>
<polygon fill="cadetblue" stroke="cadetblue" points="229.15,-221.48 221.55,-214.1 222.89,-224.61 229.15,-221.48"/>
</g>
<!-- approved -->
<g id="node4" class="node">
<title>approved</title>
<path fill="#a6cee3" stroke="#a6cee3" d="M228,-142C228,-142 198,-142 198,-142 192,-142 186,-136 186,-130 186,-130 186,-118 186,-118 186,-112 192,-106 198,-106 198,-106 228,-106 228,-106 234,-106 240,-112 240,-118 240,-118 240,-130 240,-130 240,-136 234,-142 228,-142"/>
<text text-anchor="middle" x="213" y="-121.8" font-family="Consolas" font-size="9.00">批准</text>
</g>
<!-- reviewing&#45;&gt;approved -->
<g id="edge4" class="edge">
<title>reviewing&#45;&gt;approved</title>
<path fill="none" stroke="cadetblue" d="M213,-177.7C213,-169.98 213,-160.71 213,-152.11"/>
<polygon fill="cadetblue" stroke="cadetblue" points="216.5,-152.1 213,-142.1 209.5,-152.1 216.5,-152.1"/>
</g>
<!-- question -->
<g id="node5" class="node">
<title>question</title>
<path fill="#a6cee3" stroke="#a6cee3" d="M136,-142C136,-142 106,-142 106,-142 100,-142 94,-136 94,-130 94,-130 94,-118 94,-118 94,-112 100,-106 106,-106 106,-106 136,-106 136,-106 142,-106 148,-112 148,-118 148,-118 148,-130 148,-130 148,-136 142,-142 136,-142"/>
<text text-anchor="middle" x="121" y="-121.8" font-family="Consolas" font-size="9.00">疑问</text>
</g>
<!-- reviewing&#45;&gt;question -->
<g id="edge5" class="edge">
<title>reviewing&#45;&gt;question</title>
<path fill="none" stroke="cadetblue" d="M190.26,-177.7C178.56,-168.8 164.14,-157.82 151.49,-148.2"/>
<polygon fill="cadetblue" stroke="cadetblue" points="153.56,-145.37 143.48,-142.1 149.32,-150.94 153.56,-145.37"/>
</g>
<!-- rejected -->
<g id="node6" class="node">
<title>rejected</title>
<path fill="#a6cee3" stroke="#a6cee3" d="M300,-142C300,-142 270,-142 270,-142 264,-142 258,-136 258,-130 258,-130 258,-118 258,-118 258,-112 264,-106 270,-106 270,-106 300,-106 300,-106 306,-106 312,-112 312,-118 312,-118 312,-130 312,-130 312,-136 306,-142 300,-142"/>
<text text-anchor="middle" x="285" y="-121.8" font-family="Consolas" font-size="9.00">拒绝</text>
</g>
<!-- reviewing&#45;&gt;rejected -->
<g id="edge6" class="edge">
<title>reviewing&#45;&gt;rejected</title>
<path fill="none" stroke="cadetblue" d="M230.8,-177.7C239.6,-169.14 250.38,-158.66 260,-149.3"/>
<polygon fill="cadetblue" stroke="cadetblue" points="262.68,-151.58 267.41,-142.1 257.8,-146.57 262.68,-151.58"/>
</g>
<!-- merged -->
<g id="node7" class="node">
<title>merged</title>
<path fill="#b2df8a" stroke="#b2df8a" d="M228,-70C228,-70 198,-70 198,-70 192,-70 186,-64 186,-58 186,-58 186,-46 186,-46 186,-40 192,-34 198,-34 198,-34 228,-34 228,-34 234,-34 240,-40 240,-46 240,-46 240,-58 240,-58 240,-64 234,-70 228,-70"/>
<text text-anchor="middle" x="213" y="-49.8" font-family="Consolas" font-size="9.00">合并代码</text>
</g>
<!-- approved&#45;&gt;merged -->
<g id="edge11" class="edge">
<title>approved&#45;&gt;merged</title>
<path fill="none" stroke="cadetblue" d="M213,-105.7C213,-97.98 213,-88.71 213,-80.11"/>
<polygon fill="cadetblue" stroke="cadetblue" points="216.5,-80.1 213,-70.1 209.5,-80.1 216.5,-80.1"/>
</g>
<!-- answer -->
<g id="node9" class="node">
<title>answer</title>
<path fill="#b2df8a" stroke="#b2df8a" d="M146,-70C146,-70 116,-70 116,-70 110,-70 104,-64 104,-58 104,-58 104,-46 104,-46 104,-40 110,-34 116,-34 116,-34 146,-34 146,-34 152,-34 158,-40 158,-46 158,-46 158,-58 158,-58 158,-64 152,-70 146,-70"/>
<text text-anchor="middle" x="131" y="-49.8" font-family="Consolas" font-size="9.00">解释</text>
</g>
<!-- question&#45;&gt;answer -->
<g id="edge7" class="edge">
<title>question&#45;&gt;answer</title>
<path fill="none" stroke="cadetblue" d="M123.47,-105.7C124.57,-97.98 125.9,-88.71 127.13,-80.11"/>
<polygon fill="cadetblue" stroke="cadetblue" points="130.61,-80.5 128.56,-70.1 123.68,-79.51 130.61,-80.5"/>
</g>
<!-- fix -->
<g id="node8" class="node">
<title>fix</title>
<path fill="#b2df8a" stroke="#b2df8a" d="M310,-70C310,-70 280,-70 280,-70 274,-70 268,-64 268,-58 268,-58 268,-46 268,-46 268,-40 274,-34 280,-34 280,-34 310,-34 310,-34 316,-34 322,-40 322,-46 322,-46 322,-58 322,-58 322,-64 316,-70 310,-70"/>
<text text-anchor="middle" x="295" y="-49.8" font-family="Consolas" font-size="9.00">修正代码</text>
</g>
<!-- rejected&#45;&gt;fix -->
<g id="edge9" class="edge">
<title>rejected&#45;&gt;fix</title>
<path fill="none" stroke="cadetblue" d="M287.47,-105.7C288.57,-97.98 289.9,-88.71 291.13,-80.11"/>
<polygon fill="cadetblue" stroke="cadetblue" points="294.61,-80.5 292.56,-70.1 287.68,-79.51 294.61,-80.5"/>
</g>
<!-- fix&#45;&gt;submitted -->
<g id="edge10" class="edge">
<title>fix&#45;&gt;submitted</title>
<path fill="none" stroke="cadetblue" d="M306.05,-70.39C311.74,-80.38 318.08,-93.42 321,-106 324.62,-121.59 325.18,-126.56 321,-142 310.83,-179.59 286.22,-217.48 268.38,-241.53"/>
<polygon fill="cadetblue" stroke="cadetblue" points="265.41,-239.65 262.16,-249.73 270.99,-243.88 265.41,-239.65"/>
</g>
<!-- answer&#45;&gt;reviewing -->
<g id="edge8" class="edge">
<title>answer&#45;&gt;reviewing</title>
<path fill="none" stroke="cadetblue" d="M139.06,-70.06C147.82,-88.22 162.5,-117.64 177,-142 182.4,-151.08 188.76,-160.72 194.61,-169.25"/>
<polygon fill="cadetblue" stroke="cadetblue" points="191.88,-171.46 200.46,-177.68 197.63,-167.47 191.88,-171.46"/>
</g>
<!-- reviewer -->
<g id="node10" class="node">
<title>reviewer</title>
<ellipse fill="#a6cee3" stroke="#a6cee3" cx="383" cy="-268" rx="27" ry="18"/>
<text text-anchor="middle" x="383" y="-265.8" font-family="Consolas" font-size="9.00">审核者</text>
</g>
<!-- reviewer&#45;&gt;reviewing -->
<g id="edge2" class="edge">
<title>reviewer&#45;&gt;reviewing</title>
<path fill="none" stroke="cadetblue" d="M365.27,-254.36C358.77,-250.08 351.24,-245.5 344,-242 313.38,-227.19 276.61,-215.01 249.83,-207.07"/>
<polygon fill="cadetblue" stroke="cadetblue" points="250.67,-203.67 240.09,-204.24 248.72,-210.4 250.67,-203.67"/>
</g>
</g>
</svg>
