<?xml version="1.0" encoding="UTF-8" standalone="no"?>
<!DOCTYPE svg PUBLIC "-//W3C//DTD SVG 1.1//EN"
 "http://www.w3.org/Graphics/SVG/1.1/DTD/svg11.dtd">
<!-- Generated by graphviz version 2.43.0 (0)
 -->
<!-- Title: process&#45;defect&#45;management Pages: 1 -->
<svg width="513pt" height="554pt"
 viewBox="0.00 0.00 513.00 553.60" xmlns="http://www.w3.org/2000/svg" xmlns:xlink="http://www.w3.org/1999/xlink">
<g id="graph0" class="graph" transform="scale(1 1) rotate(0) translate(4 549.6)">
<title>process&#45;defect&#45;management</title>
<polygon fill="cornsilk" stroke="transparent" points="-4,4 -4,-549.6 509,-549.6 509,4 -4,4"/>
<text text-anchor="middle" x="252.5" y="-6.8" font-family="Consolas" font-size="9.00">缺陷管理流程</text>
<g id="clust1" class="cluster">
<title>cluster0</title>
<path fill="cornsilk" stroke="cadetblue" d="M201.5,-26C201.5,-26 393.5,-26 393.5,-26 399.5,-26 405.5,-32 405.5,-38 405.5,-38 405.5,-525.6 405.5,-525.6 405.5,-531.6 399.5,-537.6 393.5,-537.6 393.5,-537.6 201.5,-537.6 201.5,-537.6 195.5,-537.6 189.5,-531.6 189.5,-525.6 189.5,-525.6 189.5,-38 189.5,-38 189.5,-32 195.5,-26 201.5,-26"/>
</g>
<!-- start -->
<g id="node1" class="node">
<title>start</title>
<ellipse fill="#b2df8a" stroke="#b2df8a" cx="290.5" cy="-527.8" rx="1.8" ry="1.8"/>
</g>
<!-- unassign -->
<g id="node2" class="node">
<title>unassign</title>
<path fill="#a6cee3" stroke="#a6cee3" d="M326.5,-480C326.5,-480 254.5,-480 254.5,-480 248.5,-480 242.5,-474 242.5,-468 242.5,-468 242.5,-456 242.5,-456 242.5,-450 248.5,-444 254.5,-444 254.5,-444 326.5,-444 326.5,-444 332.5,-444 338.5,-450 338.5,-456 338.5,-456 338.5,-468 338.5,-468 338.5,-474 332.5,-480 326.5,-480"/>
<text text-anchor="middle" x="290.5" y="-459.8" font-family="Consolas" font-size="9.00">unassign(未分配)</text>
</g>
<!-- start&#45;&gt;unassign -->
<g id="edge1" class="edge">
<title>start&#45;&gt;unassign</title>
<path fill="none" stroke="cadetblue" d="M290.5,-525.69C290.5,-521.41 290.5,-505.4 290.5,-490.64"/>
<polygon fill="cadetblue" stroke="cadetblue" points="294,-490.29 290.5,-480.29 287,-490.29 294,-490.29"/>
<text text-anchor="middle" x="318.5" y="-500.8" font-family="Consolas" font-size="9.00">提交(任何人)</text>
</g>
<!-- assigned -->
<g id="node3" class="node">
<title>assigned</title>
<path fill="#a6cee3" stroke="#a6cee3" d="M326.5,-398C326.5,-398 254.5,-398 254.5,-398 248.5,-398 242.5,-392 242.5,-386 242.5,-386 242.5,-374 242.5,-374 242.5,-368 248.5,-362 254.5,-362 254.5,-362 326.5,-362 326.5,-362 332.5,-362 338.5,-368 338.5,-374 338.5,-374 338.5,-386 338.5,-386 338.5,-392 332.5,-398 326.5,-398"/>
<text text-anchor="middle" x="290.5" y="-377.8" font-family="Consolas" font-size="9.00">assigned(已分配)</text>
</g>
<!-- unassign&#45;&gt;assigned -->
<g id="edge2" class="edge">
<title>unassign&#45;&gt;assigned</title>
<path fill="none" stroke="cadetblue" d="M290.5,-443.64C290.5,-433.3 290.5,-419.94 290.5,-408.22"/>
<polygon fill="cadetblue" stroke="cadetblue" points="294,-408.05 290.5,-398.05 287,-408.05 294,-408.05"/>
<text text-anchor="middle" x="323" y="-418.8" font-family="Consolas" font-size="9.00">分配(开发经理)</text>
</g>
<!-- in process -->
<g id="node5" class="node">
<title>in process</title>
<path fill="#a6cee3" stroke="#a6cee3" d="M332,-316C332,-316 249,-316 249,-316 243,-316 237,-310 237,-304 237,-304 237,-292 237,-292 237,-286 243,-280 249,-280 249,-280 332,-280 332,-280 338,-280 344,-286 344,-292 344,-292 344,-304 344,-304 344,-310 338,-316 332,-316"/>
<text text-anchor="middle" x="290.5" y="-295.8" font-family="Consolas" font-size="9.00">in process(工作中)</text>
</g>
<!-- assigned&#45;&gt;in process -->
<g id="edge3" class="edge">
<title>assigned&#45;&gt;in process</title>
<path fill="none" stroke="cadetblue" d="M290.5,-361.64C290.5,-351.3 290.5,-337.94 290.5,-326.22"/>
<polygon fill="cadetblue" stroke="cadetblue" points="294,-326.05 290.5,-316.05 287,-326.05 294,-326.05"/>
<text text-anchor="middle" x="314" y="-336.8" font-family="Consolas" font-size="9.00">工作(开发)</text>
</g>
<!-- rejected -->
<g id="node4" class="node">
<title>rejected</title>
<path fill="#fb9a99" stroke="#fb9a99" d="M281.5,-70C281.5,-70 209.5,-70 209.5,-70 203.5,-70 197.5,-64 197.5,-58 197.5,-58 197.5,-46 197.5,-46 197.5,-40 203.5,-34 209.5,-34 209.5,-34 281.5,-34 281.5,-34 287.5,-34 293.5,-40 293.5,-46 293.5,-46 293.5,-58 293.5,-58 293.5,-64 287.5,-70 281.5,-70"/>
<text text-anchor="middle" x="245.5" y="-49.8" font-family="Consolas" font-size="9.00">rejected(被拒绝)</text>
</g>
<!-- rejected&#45;&gt;in process -->
<g id="edge8" class="edge">
<title>rejected&#45;&gt;in process</title>
<path fill="none" stroke="cadetblue" d="M237.29,-70.07C222.59,-103.21 195.53,-177.93 220.5,-234 227.55,-249.83 240.76,-263.35 253.83,-273.77"/>
<polygon fill="cadetblue" stroke="cadetblue" points="251.79,-276.61 261.89,-279.84 256.01,-271.02 251.79,-276.61"/>
<text text-anchor="middle" x="234" y="-172.8" font-family="Consolas" font-size="9.00">工作(开发)</text>
</g>
<!-- ready to test -->
<g id="node6" class="node">
<title>ready to test</title>
<path fill="#fdbf6f" stroke="#fdbf6f" d="M339.5,-234C339.5,-234 241.5,-234 241.5,-234 235.5,-234 229.5,-228 229.5,-222 229.5,-222 229.5,-210 229.5,-210 229.5,-204 235.5,-198 241.5,-198 241.5,-198 339.5,-198 339.5,-198 345.5,-198 351.5,-204 351.5,-210 351.5,-210 351.5,-222 351.5,-222 351.5,-228 345.5,-234 339.5,-234"/>
<text text-anchor="middle" x="290.5" y="-213.8" font-family="Consolas" font-size="9.00">ready to test(已修复)</text>
</g>
<!-- in process&#45;&gt;ready to test -->
<g id="edge4" class="edge">
<title>in process&#45;&gt;ready to test</title>
<path fill="none" stroke="cadetblue" d="M290.5,-279.64C290.5,-269.3 290.5,-255.94 290.5,-244.22"/>
<polygon fill="cadetblue" stroke="cadetblue" points="294,-244.05 290.5,-234.05 287,-244.05 294,-244.05"/>
<text text-anchor="middle" x="314" y="-254.8" font-family="Consolas" font-size="9.00">解决(开发)</text>
</g>
<!-- blocked -->
<g id="node9" class="node">
<title>blocked</title>
<path fill="#a6cee3" stroke="#a6cee3" d="M493,-234C493,-234 426,-234 426,-234 420,-234 414,-228 414,-222 414,-222 414,-210 414,-210 414,-204 420,-198 426,-198 426,-198 493,-198 493,-198 499,-198 505,-204 505,-210 505,-210 505,-222 505,-222 505,-228 499,-234 493,-234"/>
<text text-anchor="middle" x="459.5" y="-213.8" font-family="Consolas" font-size="9.00">blocked(被阻碍)</text>
</g>
<!-- in process&#45;&gt;blocked -->
<g id="edge9" class="edge">
<title>in process&#45;&gt;blocked</title>
<path fill="none" stroke="cadetblue" d="M323.25,-279.89C339.97,-271.3 360.7,-260.85 379.5,-252 389.37,-247.35 400.01,-242.55 410.21,-238.05"/>
<polygon fill="cadetblue" stroke="cadetblue" points="411.67,-241.23 419.42,-234.01 408.86,-234.82 411.67,-241.23"/>
<text text-anchor="middle" x="411.5" y="-254.8" font-family="Consolas" font-size="9.00">被其它任务阻挡</text>
</g>
<!-- information request -->
<g id="node10" class="node">
<title>information request</title>
<path fill="#a6cee3" stroke="#a6cee3" d="M169,-234C169,-234 12,-234 12,-234 6,-234 0,-228 0,-222 0,-222 0,-210 0,-210 0,-204 6,-198 12,-198 12,-198 169,-198 169,-198 175,-198 181,-204 181,-210 181,-210 181,-222 181,-222 181,-228 175,-234 169,-234"/>
<text text-anchor="middle" x="90.5" y="-213.8" font-family="Consolas" font-size="9.00">information request(需要提供信息)</text>
</g>
<!-- in process&#45;&gt;information request -->
<g id="edge11" class="edge">
<title>in process&#45;&gt;information request</title>
<path fill="none" stroke="cadetblue" d="M241.94,-279.92C226.69,-274.39 209.83,-268.1 194.5,-262 175.99,-254.63 155.86,-246.05 138.28,-238.37"/>
<polygon fill="cadetblue" stroke="cadetblue" points="139.36,-235.03 128.8,-234.21 136.55,-241.44 139.36,-235.03"/>
<text text-anchor="middle" x="213" y="-254.8" font-family="Consolas" font-size="9.00">信息不足</text>
</g>
<!-- testing -->
<g id="node7" class="node">
<title>testing</title>
<path fill="#fdbf6f" stroke="#fdbf6f" d="M324,-152C324,-152 257,-152 257,-152 251,-152 245,-146 245,-140 245,-140 245,-128 245,-128 245,-122 251,-116 257,-116 257,-116 324,-116 324,-116 330,-116 336,-122 336,-128 336,-128 336,-140 336,-140 336,-146 330,-152 324,-152"/>
<text text-anchor="middle" x="290.5" y="-131.8" font-family="Consolas" font-size="9.00">testing(测试中)</text>
</g>
<!-- ready to test&#45;&gt;testing -->
<g id="edge5" class="edge">
<title>ready to test&#45;&gt;testing</title>
<path fill="none" stroke="cadetblue" d="M290.5,-197.64C290.5,-187.3 290.5,-173.94 290.5,-162.22"/>
<polygon fill="cadetblue" stroke="cadetblue" points="294,-162.05 290.5,-152.05 287,-162.05 294,-162.05"/>
<text text-anchor="middle" x="314" y="-172.8" font-family="Consolas" font-size="9.00">工作(测试)</text>
</g>
<!-- testing&#45;&gt;rejected -->
<g id="edge7" class="edge">
<title>testing&#45;&gt;rejected</title>
<path fill="none" stroke="cadetblue" d="M280.74,-115.64C274.68,-104.87 266.79,-90.85 260.01,-78.79"/>
<polygon fill="cadetblue" stroke="cadetblue" points="263.04,-77.05 255.09,-70.05 256.94,-80.48 263.04,-77.05"/>
<text text-anchor="middle" x="294" y="-90.8" font-family="Consolas" font-size="9.00">拒绝(测试)</text>
</g>
<!-- closed -->
<g id="node8" class="node">
<title>closed</title>
<path fill="#b2df8a" stroke="#b2df8a" d="M385.5,-70C385.5,-70 323.5,-70 323.5,-70 317.5,-70 311.5,-64 311.5,-58 311.5,-58 311.5,-46 311.5,-46 311.5,-40 317.5,-34 323.5,-34 323.5,-34 385.5,-34 385.5,-34 391.5,-34 397.5,-40 397.5,-46 397.5,-46 397.5,-58 397.5,-58 397.5,-64 391.5,-70 385.5,-70"/>
<text text-anchor="middle" x="354.5" y="-49.8" font-family="Consolas" font-size="9.00">closed(已关闭)</text>
</g>
<!-- testing&#45;&gt;closed -->
<g id="edge6" class="edge">
<title>testing&#45;&gt;closed</title>
<path fill="none" stroke="cadetblue" d="M304.77,-116C309.49,-110.31 314.76,-103.91 319.5,-98 324.64,-91.6 330.13,-84.62 335.19,-78.11"/>
<polygon fill="cadetblue" stroke="cadetblue" points="337.97,-80.24 341.33,-70.19 332.43,-75.95 337.97,-80.24"/>
<text text-anchor="middle" x="350" y="-90.8" font-family="Consolas" font-size="9.00">验证(测试)</text>
</g>
<!-- blocked&#45;&gt;unassign -->
<g id="edge10" class="edge">
<title>blocked&#45;&gt;unassign</title>
<path fill="none" stroke="cadetblue" d="M455.49,-234.19C445.62,-273.12 416.64,-369.08 359.5,-426 354.7,-430.78 349.12,-435.03 343.25,-438.78"/>
<polygon fill="cadetblue" stroke="cadetblue" points="341.35,-435.83 334.5,-443.91 344.9,-441.87 341.35,-435.83"/>
<text text-anchor="middle" x="429" y="-336.8" font-family="Consolas" font-size="9.00">解决</text>
</g>
<!-- information request&#45;&gt;unassign -->
<g id="edge12" class="edge">
<title>information request&#45;&gt;unassign</title>
<path fill="none" stroke="cadetblue" d="M103.53,-234.27C128.24,-266.83 183.85,-339.29 233.5,-398 244.41,-410.9 256.97,-424.87 267.52,-436.37"/>
<polygon fill="cadetblue" stroke="cadetblue" points="265.11,-438.92 274.46,-443.9 270.25,-434.17 265.11,-438.92"/>
<text text-anchor="middle" x="207" y="-336.8" font-family="Consolas" font-size="9.00">提供信息</text>
</g>
</g>
</svg>
