<?xml version="1.0" encoding="UTF-8" standalone="no"?>
<!DOCTYPE svg PUBLIC "-//W3C//DTD SVG 1.1//EN"
 "http://www.w3.org/Graphics/SVG/1.1/DTD/svg11.dtd">
<!-- Generated by graphviz version 2.43.0 (0)
 -->
<!-- Title: role&#45;process&#45;artifact Pages: 1 -->
<svg width="352pt" height="328pt"
 viewBox="0.00 0.00 352.00 328.00" xmlns="http://www.w3.org/2000/svg" xmlns:xlink="http://www.w3.org/1999/xlink">
<g id="graph0" class="graph" transform="scale(1 1) rotate(0) translate(4 324)">
<title>role&#45;process&#45;artifact</title>
<polygon fill="cornsilk" stroke="transparent" points="-4,4 -4,-324 348,-324 348,4 -4,4"/>
<text text-anchor="middle" x="172" y="-6.8" font-family="Consolas" font-size="9.00">角色&#45;产出物</text>
<g id="clust1" class="cluster">
<title>cluster0</title>
<path fill="cornsilk" stroke="cadetblue" d="M20,-26C20,-26 138,-26 138,-26 144,-26 150,-32 150,-38 150,-38 150,-300 150,-300 150,-306 144,-312 138,-312 138,-312 20,-312 20,-312 14,-312 8,-306 8,-300 8,-300 8,-38 8,-38 8,-32 14,-26 20,-26"/>
<text text-anchor="middle" x="79" y="-300.8" font-family="Consolas" font-size="9.00">产出物</text>
</g>
<g id="clust2" class="cluster">
<title>cluster1</title>
<path fill="cornsilk" stroke="cadetblue" d="M170,-98C170,-98 324,-98 324,-98 330,-98 336,-104 336,-110 336,-110 336,-300 336,-300 336,-306 330,-312 324,-312 324,-312 170,-312 170,-312 164,-312 158,-306 158,-300 158,-300 158,-110 158,-110 158,-104 164,-98 170,-98"/>
<text text-anchor="middle" x="247" y="-300.8" font-family="Consolas" font-size="9.00">角色</text>
</g>
<!-- doc_analysis -->
<g id="node1" class="node">
<title>doc_analysis</title>
<path fill="#b2df8a" stroke="#b2df8a" d="M94,-286C94,-286 64,-286 64,-286 58,-286 52,-280 52,-274 52,-274 52,-262 52,-262 52,-256 58,-250 64,-250 64,-250 94,-250 94,-250 100,-250 106,-256 106,-262 106,-262 106,-274 106,-274 106,-280 100,-286 94,-286"/>
<text text-anchor="middle" x="79" y="-265.8" font-family="Consolas" font-size="9.00">需求分析</text>
</g>
<!-- doc_design -->
<g id="node2" class="node">
<title>doc_design</title>
<path fill="#b2df8a" stroke="#b2df8a" d="M58,-214C58,-214 28,-214 28,-214 22,-214 16,-208 16,-202 16,-202 16,-190 16,-190 16,-184 22,-178 28,-178 28,-178 58,-178 58,-178 64,-178 70,-184 70,-190 70,-190 70,-202 70,-202 70,-208 64,-214 58,-214"/>
<text text-anchor="middle" x="43" y="-193.8" font-family="Consolas" font-size="9.00">设计文档</text>
</g>
<!-- doc_analysis&#45;&gt;doc_design -->
<g id="edge1" class="edge">
<title>doc_analysis&#45;&gt;doc_design</title>
<path fill="none" stroke="cadetblue" d="M70.1,-249.7C66,-241.73 61.05,-232.1 56.51,-223.26"/>
<polygon fill="cadetblue" stroke="cadetblue" points="59.48,-221.4 51.8,-214.1 53.26,-224.6 59.48,-221.4"/>
</g>
<!-- doc_design_ui -->
<g id="node3" class="node">
<title>doc_design_ui</title>
<path fill="#b2df8a" stroke="#b2df8a" d="M130,-214C130,-214 100,-214 100,-214 94,-214 88,-208 88,-202 88,-202 88,-190 88,-190 88,-184 94,-178 100,-178 100,-178 130,-178 130,-178 136,-178 142,-184 142,-190 142,-190 142,-202 142,-202 142,-208 136,-214 130,-214"/>
<text text-anchor="middle" x="115" y="-193.8" font-family="Consolas" font-size="9.00">UI设计</text>
</g>
<!-- doc_analysis&#45;&gt;doc_design_ui -->
<g id="edge2" class="edge">
<title>doc_analysis&#45;&gt;doc_design_ui</title>
<path fill="none" stroke="cadetblue" d="M87.9,-249.7C92,-241.73 96.95,-232.1 101.49,-223.26"/>
<polygon fill="cadetblue" stroke="cadetblue" points="104.74,-224.6 106.2,-214.1 98.52,-221.4 104.74,-224.6"/>
</g>
<!-- source_code -->
<g id="node4" class="node">
<title>source_code</title>
<path fill="#b2df8a" stroke="#b2df8a" d="M58,-142C58,-142 28,-142 28,-142 22,-142 16,-136 16,-130 16,-130 16,-118 16,-118 16,-112 22,-106 28,-106 28,-106 58,-106 58,-106 64,-106 70,-112 70,-118 70,-118 70,-130 70,-130 70,-136 64,-142 58,-142"/>
<text text-anchor="middle" x="43" y="-121.8" font-family="Consolas" font-size="9.00">代码</text>
</g>
<!-- doc_design&#45;&gt;source_code -->
<g id="edge3" class="edge">
<title>doc_design&#45;&gt;source_code</title>
<path fill="none" stroke="cadetblue" d="M43,-177.7C43,-169.98 43,-160.71 43,-152.11"/>
<polygon fill="cadetblue" stroke="cadetblue" points="46.5,-152.1 43,-142.1 39.5,-152.1 46.5,-152.1"/>
</g>
<!-- test_case -->
<g id="node5" class="node">
<title>test_case</title>
<path fill="#b2df8a" stroke="#b2df8a" d="M130,-142C130,-142 100,-142 100,-142 94,-142 88,-136 88,-130 88,-130 88,-118 88,-118 88,-112 94,-106 100,-106 100,-106 130,-106 130,-106 136,-106 142,-112 142,-118 142,-118 142,-130 142,-130 142,-136 136,-142 130,-142"/>
<text text-anchor="middle" x="115" y="-121.8" font-family="Consolas" font-size="9.00">测试用例</text>
</g>
<!-- doc_design&#45;&gt;test_case -->
<g id="edge5" class="edge">
<title>doc_design&#45;&gt;test_case</title>
<path fill="none" stroke="cadetblue" d="M60.8,-177.7C69.6,-169.14 80.38,-158.66 90,-149.3"/>
<polygon fill="cadetblue" stroke="cadetblue" points="92.68,-151.58 97.41,-142.1 87.8,-146.57 92.68,-151.58"/>
</g>
<!-- doc_design_ui&#45;&gt;source_code -->
<g id="edge4" class="edge">
<title>doc_design_ui&#45;&gt;source_code</title>
<path fill="none" stroke="cadetblue" d="M97.2,-177.7C88.4,-169.14 77.62,-158.66 68,-149.3"/>
<polygon fill="cadetblue" stroke="cadetblue" points="70.2,-146.57 60.59,-142.1 65.32,-151.58 70.2,-146.57"/>
</g>
<!-- doc_design_ui&#45;&gt;test_case -->
<g id="edge6" class="edge">
<title>doc_design_ui&#45;&gt;test_case</title>
<path fill="none" stroke="cadetblue" d="M115,-177.7C115,-169.98 115,-160.71 115,-152.11"/>
<polygon fill="cadetblue" stroke="cadetblue" points="118.5,-152.1 115,-142.1 111.5,-152.1 118.5,-152.1"/>
</g>
<!-- product -->
<g id="node6" class="node">
<title>product</title>
<path fill="#b2df8a" stroke="#b2df8a" d="M58,-70C58,-70 28,-70 28,-70 22,-70 16,-64 16,-58 16,-58 16,-46 16,-46 16,-40 22,-34 28,-34 28,-34 58,-34 58,-34 64,-34 70,-40 70,-46 70,-46 70,-58 70,-58 70,-64 64,-70 58,-70"/>
<text text-anchor="middle" x="43" y="-49.8" font-family="Consolas" font-size="9.00">产品</text>
</g>
<!-- source_code&#45;&gt;product -->
<g id="edge7" class="edge">
<title>source_code&#45;&gt;product</title>
<path fill="none" stroke="cadetblue" d="M43,-105.7C43,-97.98 43,-88.71 43,-80.11"/>
<polygon fill="cadetblue" stroke="cadetblue" points="46.5,-80.1 43,-70.1 39.5,-80.1 46.5,-80.1"/>
</g>
<!-- product_manager -->
<g id="node7" class="node">
<title>product_manager</title>
<ellipse fill="#b2df8a" stroke="#b2df8a" cx="249" cy="-268" rx="30.7" ry="18"/>
<text text-anchor="middle" x="249" y="-265.8" font-family="Consolas" font-size="9.00">产品经理</text>
</g>
<!-- product_manager&#45;&gt;doc_analysis -->
<g id="edge8" class="edge">
<title>product_manager&#45;&gt;doc_analysis</title>
<path fill="none" stroke="cadetblue" d="M218.33,-268C184.32,-268 150.31,-268 116.3,-268"/>
<polygon fill="cadetblue" stroke="cadetblue" points="116.23,-264.5 106.23,-268 116.23,-271.5 116.23,-264.5"/>
</g>
<!-- designer -->
<g id="node8" class="node">
<title>designer</title>
<ellipse fill="#b2df8a" stroke="#b2df8a" cx="211" cy="-196" rx="27" ry="18"/>
<text text-anchor="middle" x="211" y="-193.8" font-family="Consolas" font-size="9.00">设计师</text>
</g>
<!-- product_manager&#45;&gt;designer -->
<!-- ui_designer -->
<g id="node9" class="node">
<title>ui_designer</title>
<ellipse fill="#b2df8a" stroke="#b2df8a" cx="287" cy="-196" rx="31.35" ry="18"/>
<text text-anchor="middle" x="287" y="-193.8" font-family="Consolas" font-size="9.00">UI设计师</text>
</g>
<!-- product_manager&#45;&gt;ui_designer -->
<!-- designer&#45;&gt;doc_design -->
<g id="edge9" class="edge">
<title>designer&#45;&gt;doc_design</title>
<path fill="none" stroke="cadetblue" d="M192.71,-209.24C180.01,-217.58 162.33,-227.58 145,-232 120.45,-238.26 111.91,-240.39 88,-232 80.86,-229.5 74.01,-225.33 67.91,-220.7"/>
<polygon fill="cadetblue" stroke="cadetblue" points="70.01,-217.9 60.08,-214.22 65.55,-223.29 70.01,-217.9"/>
</g>
<!-- developer -->
<g id="node10" class="node">
<title>developer</title>
<ellipse fill="#b2df8a" stroke="#b2df8a" cx="202" cy="-124" rx="35.59" ry="18"/>
<text text-anchor="middle" x="202" y="-121.8" font-family="Consolas" font-size="9.00">开发工程师</text>
</g>
<!-- designer&#45;&gt;developer -->
<!-- qa -->
<g id="node11" class="node">
<title>qa</title>
<ellipse fill="#b2df8a" stroke="#b2df8a" cx="292" cy="-124" rx="35.59" ry="18"/>
<text text-anchor="middle" x="292" y="-121.8" font-family="Consolas" font-size="9.00">测试工程师</text>
</g>
<!-- designer&#45;&gt;qa -->
<!-- ui_designer&#45;&gt;doc_design_ui -->
<g id="edge10" class="edge">
<title>ui_designer&#45;&gt;doc_design_ui</title>
<path fill="none" stroke="cadetblue" d="M271.27,-211.59C262.32,-219.35 250.44,-227.92 238,-232 206.33,-242.38 194.62,-242.54 163,-232 155.36,-229.45 147.95,-225.16 141.34,-220.4"/>
<polygon fill="cadetblue" stroke="cadetblue" points="143.46,-217.62 133.42,-214.24 139.16,-223.14 143.46,-217.62"/>
</g>
<!-- developer&#45;&gt;source_code -->
<g id="edge11" class="edge">
<title>developer&#45;&gt;source_code</title>
<path fill="none" stroke="cadetblue" d="M183.54,-139.44C172.97,-147.26 159.05,-155.93 145,-160 120.66,-167.04 111.91,-168.39 88,-160 80.86,-157.5 74.01,-153.33 67.91,-148.7"/>
<polygon fill="cadetblue" stroke="cadetblue" points="70.01,-145.9 60.08,-142.22 65.55,-151.29 70.01,-145.9"/>
</g>
<!-- qa&#45;&gt;test_case -->
<g id="edge12" class="edge">
<title>qa&#45;&gt;test_case</title>
<path fill="none" stroke="cadetblue" d="M273.92,-139.99C264.04,-147.65 251.16,-156.02 238,-160 206.1,-169.66 194.62,-170.54 163,-160 155.36,-157.45 147.95,-153.16 141.34,-148.4"/>
<polygon fill="cadetblue" stroke="cadetblue" points="143.46,-145.62 133.42,-142.24 139.16,-151.14 143.46,-145.62"/>
</g>
</g>
</svg>
