<?xml version="1.0" encoding="UTF-8" standalone="no"?>
<!DOCTYPE svg PUBLIC "-//W3C//DTD SVG 1.1//EN"
 "http://www.w3.org/Graphics/SVG/1.1/DTD/svg11.dtd">
<!-- Generated by graphviz version 2.43.0 (0)
 -->
<!-- Title: code&#45;review&#45;process Pages: 1 -->
<svg width="463pt" height="382pt"
 viewBox="0.00 0.00 462.96 382.00" xmlns="http://www.w3.org/2000/svg" xmlns:xlink="http://www.w3.org/1999/xlink">
<g id="graph0" class="graph" transform="scale(1 1) rotate(0) translate(4 378)">
<title>code&#45;review&#45;process</title>
<polygon fill="cornsilk" stroke="transparent" points="-4,4 -4,-378 458.96,-378 458.96,4 -4,4"/>
<text text-anchor="middle" x="227.48" y="-6.8" font-family="Consolas" font-size="9.00">代码审核流程(代码冻结后)</text>
<g id="clust1" class="cluster">
<title>cluster0</title>
<path fill="cornsilk" stroke="transparent" d="M20,-314C20,-314 66,-314 66,-314 72,-314 78,-320 78,-326 78,-326 78,-354 78,-354 78,-360 72,-366 66,-366 66,-366 20,-366 20,-366 14,-366 8,-360 8,-354 8,-354 8,-326 8,-326 8,-320 14,-314 20,-314"/>
</g>
<g id="clust2" class="cluster">
<title>cluster1</title>
<path fill="cornsilk" stroke="cadetblue" d="M98,-98C98,-98 328,-98 328,-98 334,-98 340,-104 340,-110 340,-110 340,-354 340,-354 340,-360 334,-366 328,-366 328,-366 98,-366 98,-366 92,-366 86,-360 86,-354 86,-354 86,-110 86,-110 86,-104 92,-98 98,-98"/>
</g>
<g id="clust3" class="cluster">
<title>cluster2</title>
<path fill="cornsilk" stroke="cadetblue" d="M360,-26C360,-26 424,-26 424,-26 430,-26 436,-32 436,-38 436,-38 436,-354 436,-354 436,-360 430,-366 424,-366 424,-366 360,-366 360,-366 354,-366 348,-360 348,-354 348,-354 348,-38 348,-38 348,-32 354,-26 360,-26"/>
</g>
<!-- coder -->
<g id="node1" class="node">
<title>coder</title>
<ellipse fill="#b2df8a" stroke="#b2df8a" cx="43" cy="-340" rx="27" ry="18"/>
<text text-anchor="middle" x="43" y="-337.8" font-family="Consolas" font-size="9.00">开发者</text>
</g>
<!-- submitted -->
<g id="node2" class="node">
<title>submitted</title>
<path fill="#b2df8a" stroke="#b2df8a" d="M285,-358C285,-358 211,-358 211,-358 205,-358 199,-352 199,-346 199,-346 199,-334 199,-334 199,-328 205,-322 211,-322 211,-322 285,-322 285,-322 291,-322 297,-328 297,-334 297,-334 297,-346 297,-346 297,-352 291,-358 285,-358"/>
<text text-anchor="middle" x="248" y="-337.8" font-family="Consolas" font-size="9.00">提交代码到私有分支</text>
</g>
<!-- coder&#45;&gt;submitted -->
<g id="edge1" class="edge">
<title>coder&#45;&gt;submitted</title>
<path fill="none" stroke="cadetblue" d="M70.23,-340C109.7,-340 149.18,-340 188.66,-340"/>
<polygon fill="cadetblue" stroke="cadetblue" points="188.7,-343.5 198.7,-340 188.7,-336.5 188.7,-343.5"/>
</g>
<!-- reviewing -->
<g id="node3" class="node">
<title>reviewing</title>
<path fill="#a6cee3" stroke="#a6cee3" d="M228,-286C228,-286 198,-286 198,-286 192,-286 186,-280 186,-274 186,-274 186,-262 186,-262 186,-256 192,-250 198,-250 198,-250 228,-250 228,-250 234,-250 240,-256 240,-262 240,-262 240,-274 240,-274 240,-280 234,-286 228,-286"/>
<text text-anchor="middle" x="213" y="-265.8" font-family="Consolas" font-size="9.00">审核</text>
</g>
<!-- submitted&#45;&gt;reviewing -->
<g id="edge11" class="edge">
<title>submitted&#45;&gt;reviewing</title>
<path fill="none" stroke="cadetblue" d="M239.35,-321.7C235.36,-313.73 230.55,-304.1 226.13,-295.26"/>
<polygon fill="cadetblue" stroke="cadetblue" points="229.15,-293.48 221.55,-286.1 222.89,-296.61 229.15,-293.48"/>
</g>
<!-- approved -->
<g id="node4" class="node">
<title>approved</title>
<path fill="#a6cee3" stroke="#a6cee3" d="M228,-214C228,-214 198,-214 198,-214 192,-214 186,-208 186,-202 186,-202 186,-190 186,-190 186,-184 192,-178 198,-178 198,-178 228,-178 228,-178 234,-178 240,-184 240,-190 240,-190 240,-202 240,-202 240,-208 234,-214 228,-214"/>
<text text-anchor="middle" x="213" y="-193.8" font-family="Consolas" font-size="9.00">批准</text>
</g>
<!-- reviewing&#45;&gt;approved -->
<g id="edge12" class="edge">
<title>reviewing&#45;&gt;approved</title>
<path fill="none" stroke="cadetblue" d="M213,-249.7C213,-241.98 213,-232.71 213,-224.11"/>
<polygon fill="cadetblue" stroke="cadetblue" points="216.5,-224.1 213,-214.1 209.5,-224.1 216.5,-224.1"/>
</g>
<!-- question -->
<g id="node5" class="node">
<title>question</title>
<path fill="#a6cee3" stroke="#a6cee3" d="M136,-214C136,-214 106,-214 106,-214 100,-214 94,-208 94,-202 94,-202 94,-190 94,-190 94,-184 100,-178 106,-178 106,-178 136,-178 136,-178 142,-178 148,-184 148,-190 148,-190 148,-202 148,-202 148,-208 142,-214 136,-214"/>
<text text-anchor="middle" x="121" y="-193.8" font-family="Consolas" font-size="9.00">疑问</text>
</g>
<!-- reviewing&#45;&gt;question -->
<g id="edge13" class="edge">
<title>reviewing&#45;&gt;question</title>
<path fill="none" stroke="cadetblue" d="M190.26,-249.7C178.56,-240.8 164.14,-229.82 151.49,-220.2"/>
<polygon fill="cadetblue" stroke="cadetblue" points="153.56,-217.37 143.48,-214.1 149.32,-222.94 153.56,-217.37"/>
</g>
<!-- rejected -->
<g id="node6" class="node">
<title>rejected</title>
<path fill="#a6cee3" stroke="#a6cee3" d="M300,-214C300,-214 270,-214 270,-214 264,-214 258,-208 258,-202 258,-202 258,-190 258,-190 258,-184 264,-178 270,-178 270,-178 300,-178 300,-178 306,-178 312,-184 312,-190 312,-190 312,-202 312,-202 312,-208 306,-214 300,-214"/>
<text text-anchor="middle" x="285" y="-193.8" font-family="Consolas" font-size="9.00">拒绝</text>
</g>
<!-- reviewing&#45;&gt;rejected -->
<g id="edge14" class="edge">
<title>reviewing&#45;&gt;rejected</title>
<path fill="none" stroke="cadetblue" d="M230.8,-249.7C239.6,-241.14 250.38,-230.66 260,-221.3"/>
<polygon fill="cadetblue" stroke="cadetblue" points="262.68,-223.58 267.41,-214.1 257.8,-218.57 262.68,-223.58"/>
</g>
<!-- merged -->
<g id="node7" class="node">
<title>merged</title>
<path fill="#b2df8a" stroke="#b2df8a" d="M228,-142C228,-142 198,-142 198,-142 192,-142 186,-136 186,-130 186,-130 186,-118 186,-118 186,-112 192,-106 198,-106 198,-106 228,-106 228,-106 234,-106 240,-112 240,-118 240,-118 240,-130 240,-130 240,-136 234,-142 228,-142"/>
<text text-anchor="middle" x="213" y="-121.8" font-family="Consolas" font-size="9.00">合并代码</text>
</g>
<!-- approved&#45;&gt;merged -->
<g id="edge19" class="edge">
<title>approved&#45;&gt;merged</title>
<path fill="none" stroke="cadetblue" d="M213,-177.7C213,-169.98 213,-160.71 213,-152.11"/>
<polygon fill="cadetblue" stroke="cadetblue" points="216.5,-152.1 213,-142.1 209.5,-152.1 216.5,-152.1"/>
</g>
<!-- answer -->
<g id="node9" class="node">
<title>answer</title>
<path fill="#b2df8a" stroke="#b2df8a" d="M146,-142C146,-142 116,-142 116,-142 110,-142 104,-136 104,-130 104,-130 104,-118 104,-118 104,-112 110,-106 116,-106 116,-106 146,-106 146,-106 152,-106 158,-112 158,-118 158,-118 158,-130 158,-130 158,-136 152,-142 146,-142"/>
<text text-anchor="middle" x="131" y="-121.8" font-family="Consolas" font-size="9.00">解释</text>
</g>
<!-- question&#45;&gt;answer -->
<g id="edge15" class="edge">
<title>question&#45;&gt;answer</title>
<path fill="none" stroke="cadetblue" d="M123.47,-177.7C124.57,-169.98 125.9,-160.71 127.13,-152.11"/>
<polygon fill="cadetblue" stroke="cadetblue" points="130.61,-152.5 128.56,-142.1 123.68,-151.51 130.61,-152.5"/>
</g>
<!-- fix -->
<g id="node8" class="node">
<title>fix</title>
<path fill="#b2df8a" stroke="#b2df8a" d="M310,-142C310,-142 280,-142 280,-142 274,-142 268,-136 268,-130 268,-130 268,-118 268,-118 268,-112 274,-106 280,-106 280,-106 310,-106 310,-106 316,-106 322,-112 322,-118 322,-118 322,-130 322,-130 322,-136 316,-142 310,-142"/>
<text text-anchor="middle" x="295" y="-121.8" font-family="Consolas" font-size="9.00">修正代码</text>
</g>
<!-- rejected&#45;&gt;fix -->
<g id="edge17" class="edge">
<title>rejected&#45;&gt;fix</title>
<path fill="none" stroke="cadetblue" d="M287.47,-177.7C288.57,-169.98 289.9,-160.71 291.13,-152.11"/>
<polygon fill="cadetblue" stroke="cadetblue" points="294.61,-152.5 292.56,-142.1 287.68,-151.51 294.61,-152.5"/>
</g>
<!-- fix&#45;&gt;submitted -->
<g id="edge18" class="edge">
<title>fix&#45;&gt;submitted</title>
<path fill="none" stroke="cadetblue" d="M306.05,-142.39C311.74,-152.38 318.08,-165.42 321,-178 324.62,-193.59 325.18,-198.56 321,-214 310.83,-251.59 286.22,-289.48 268.38,-313.53"/>
<polygon fill="cadetblue" stroke="cadetblue" points="265.41,-311.65 262.16,-321.73 270.99,-315.88 265.41,-311.65"/>
</g>
<!-- answer&#45;&gt;reviewing -->
<g id="edge16" class="edge">
<title>answer&#45;&gt;reviewing</title>
<path fill="none" stroke="cadetblue" d="M139.06,-142.06C147.82,-160.22 162.5,-189.64 177,-214 182.4,-223.08 188.76,-232.72 194.61,-241.25"/>
<polygon fill="cadetblue" stroke="cadetblue" points="191.88,-243.46 200.46,-249.68 197.63,-239.47 191.88,-243.46"/>
</g>
<!-- developer -->
<g id="node10" class="node">
<title>developer</title>
<ellipse fill="#a6cee3" stroke="#a6cee3" cx="392" cy="-340" rx="35.59" ry="18"/>
<text text-anchor="middle" x="392" y="-337.8" font-family="Consolas" font-size="9.00">开发工程师</text>
</g>
<!-- developer&#45;&gt;reviewing -->
<g id="edge2" class="edge">
<title>developer&#45;&gt;reviewing</title>
<path fill="none" stroke="cadetblue" d="M368.9,-326.08C361.11,-321.96 352.29,-317.56 344,-314 312.85,-300.62 276.27,-288.33 249.7,-279.99"/>
<polygon fill="cadetblue" stroke="cadetblue" points="250.63,-276.61 240.04,-276.99 248.55,-283.3 250.63,-276.61"/>
</g>
<!-- architect -->
<g id="node11" class="node">
<title>architect</title>
<ellipse fill="#a6cee3" stroke="#a6cee3" cx="392" cy="-268" rx="27" ry="18"/>
<text text-anchor="middle" x="392" y="-265.8" font-family="Consolas" font-size="9.00">架构师</text>
</g>
<!-- developer&#45;&gt;architect -->
<!-- architect&#45;&gt;reviewing -->
<g id="edge3" class="edge">
<title>architect&#45;&gt;reviewing</title>
<path fill="none" stroke="cadetblue" d="M364.74,-268C326.65,-268 288.57,-268 250.48,-268"/>
<polygon fill="cadetblue" stroke="cadetblue" points="250.27,-264.5 240.27,-268 250.27,-271.5 250.27,-264.5"/>
</g>
<!-- development&#45;manager -->
<g id="node12" class="node">
<title>development&#45;manager</title>
<ellipse fill="#a6cee3" stroke="#a6cee3" cx="392" cy="-196" rx="30.7" ry="18"/>
<text text-anchor="middle" x="392" y="-193.8" font-family="Consolas" font-size="9.00">开发经理</text>
</g>
<!-- architect&#45;&gt;development&#45;manager -->
<!-- development&#45;manager&#45;&gt;reviewing -->
<g id="edge4" class="edge">
<title>development&#45;manager&#45;&gt;reviewing</title>
<path fill="none" stroke="cadetblue" d="M367.16,-206.71C336.66,-218.64 284.68,-238.97 249.6,-252.69"/>
<polygon fill="cadetblue" stroke="cadetblue" points="248.22,-249.47 240.19,-256.37 250.77,-255.99 248.22,-249.47"/>
</g>
<!-- qa&#45;mananger -->
<g id="node13" class="node">
<title>qa&#45;mananger</title>
<ellipse fill="#a6cee3" stroke="#a6cee3" cx="392" cy="-124" rx="30.7" ry="18"/>
<text text-anchor="middle" x="392" y="-121.8" font-family="Consolas" font-size="9.00">测试经理</text>
</g>
<!-- development&#45;manager&#45;&gt;qa&#45;mananger -->
<!-- qa&#45;mananger&#45;&gt;reviewing -->
<g id="edge5" class="edge">
<title>qa&#45;mananger&#45;&gt;reviewing</title>
<path fill="none" stroke="cadetblue" d="M407.6,-139.74C425.48,-158.42 450.12,-190.97 432,-214 409.8,-242.22 306.82,-257.22 250.34,-263.45"/>
<polygon fill="cadetblue" stroke="cadetblue" points="249.93,-259.97 240.36,-264.51 250.67,-266.93 249.93,-259.97"/>
</g>
<!-- qa -->
<g id="node14" class="node">
<title>qa</title>
<ellipse fill="#a6cee3" stroke="#a6cee3" cx="392" cy="-52" rx="35.59" ry="18"/>
<text text-anchor="middle" x="392" y="-49.8" font-family="Consolas" font-size="9.00">测试工程师</text>
</g>
<!-- qa&#45;mananger&#45;&gt;qa -->
<!-- qa&#45;&gt;reviewing -->
<g id="edge6" class="edge">
<title>qa&#45;&gt;reviewing</title>
<path fill="none" stroke="cadetblue" d="M409.08,-68.13C417.2,-76.22 426.34,-86.81 432,-98 443.41,-120.58 465.46,-193.43 449,-214 436.57,-229.53 313.29,-251.1 250.03,-261.27"/>
<polygon fill="cadetblue" stroke="cadetblue" points="249.38,-257.83 240.05,-262.85 250.48,-264.74 249.38,-257.83"/>
</g>
</g>
</svg>
