<?xml version="1.0" encoding="UTF-8" standalone="no"?>
<!DOCTYPE svg PUBLIC "-//W3C//DTD SVG 1.1//EN"
 "http://www.w3.org/Graphics/SVG/1.1/DTD/svg11.dtd">
<!-- Generated by graphviz version 2.43.0 (0)
 -->
<!-- Title: process&#45;doc&#45;review Pages: 1 -->
<svg width="342pt" height="310pt"
 viewBox="0.00 0.00 342.00 310.00" xmlns="http://www.w3.org/2000/svg" xmlns:xlink="http://www.w3.org/1999/xlink">
<g id="graph0" class="graph" transform="scale(1 1) rotate(0) translate(4 306)">
<title>process&#45;doc&#45;review</title>
<polygon fill="cornsilk" stroke="transparent" points="-4,4 -4,-306 338,-306 338,4 -4,4"/>
<text text-anchor="middle" x="167" y="-6.8" font-family="Consolas" font-size="9.00">文档审核流程</text>
<g id="clust1" class="cluster">
<title>cluster0</title>
<path fill="cornsilk" stroke="transparent" d="M20,-242C20,-242 66,-242 66,-242 72,-242 78,-248 78,-254 78,-254 78,-282 78,-282 78,-288 72,-294 66,-294 66,-294 20,-294 20,-294 14,-294 8,-288 8,-282 8,-282 8,-254 8,-254 8,-248 14,-242 20,-242"/>
</g>
<g id="clust2" class="cluster">
<title>cluster1</title>
<path fill="cornsilk" stroke="cadetblue" d="M98,-26C98,-26 236,-26 236,-26 242,-26 248,-32 248,-38 248,-38 248,-282 248,-282 248,-288 242,-294 236,-294 236,-294 98,-294 98,-294 92,-294 86,-288 86,-282 86,-282 86,-38 86,-38 86,-32 92,-26 98,-26"/>
</g>
<g id="clust3" class="cluster">
<title>cluster2</title>
<path fill="cornsilk" stroke="transparent" d="M268,-242C268,-242 314,-242 314,-242 320,-242 326,-248 326,-254 326,-254 326,-282 326,-282 326,-288 320,-294 314,-294 314,-294 268,-294 268,-294 262,-294 256,-288 256,-282 256,-282 256,-254 256,-254 256,-248 262,-242 268,-242"/>
</g>
<!-- author -->
<g id="node1" class="node">
<title>author</title>
<ellipse fill="#b2df8a" stroke="#b2df8a" cx="43" cy="-268" rx="27" ry="18"/>
<text text-anchor="middle" x="43" y="-265.8" font-family="Consolas" font-size="9.00">作者</text>
</g>
<!-- submitted -->
<g id="node2" class="node">
<title>submitted</title>
<path fill="#b2df8a" stroke="#b2df8a" d="M216.5,-286C216.5,-286 169.5,-286 169.5,-286 163.5,-286 157.5,-280 157.5,-274 157.5,-274 157.5,-262 157.5,-262 157.5,-256 163.5,-250 169.5,-250 169.5,-250 216.5,-250 216.5,-250 222.5,-250 228.5,-256 228.5,-262 228.5,-262 228.5,-274 228.5,-274 228.5,-280 222.5,-286 216.5,-286"/>
<text text-anchor="middle" x="193" y="-265.8" font-family="Consolas" font-size="9.00">发出审核邀请</text>
</g>
<!-- author&#45;&gt;submitted -->
<g id="edge1" class="edge">
<title>author&#45;&gt;submitted</title>
<path fill="none" stroke="cadetblue" d="M70.25,-268C95.79,-268 121.33,-268 146.87,-268"/>
<polygon fill="cadetblue" stroke="cadetblue" points="147.04,-271.5 157.04,-268 147.04,-264.5 147.04,-271.5"/>
</g>
<!-- reviewing -->
<g id="node3" class="node">
<title>reviewing</title>
<path fill="#a6cee3" stroke="#a6cee3" d="M208,-214C208,-214 178,-214 178,-214 172,-214 166,-208 166,-202 166,-202 166,-190 166,-190 166,-184 172,-178 178,-178 178,-178 208,-178 208,-178 214,-178 220,-184 220,-190 220,-190 220,-202 220,-202 220,-208 214,-214 208,-214"/>
<text text-anchor="middle" x="193" y="-193.8" font-family="Consolas" font-size="9.00">审核</text>
</g>
<!-- submitted&#45;&gt;reviewing -->
<g id="edge3" class="edge">
<title>submitted&#45;&gt;reviewing</title>
<path fill="none" stroke="cadetblue" d="M193,-249.7C193,-241.98 193,-232.71 193,-224.11"/>
<polygon fill="cadetblue" stroke="cadetblue" points="196.5,-224.1 193,-214.1 189.5,-224.1 196.5,-224.1"/>
</g>
<!-- question -->
<g id="node4" class="node">
<title>question</title>
<path fill="#a6cee3" stroke="#a6cee3" d="M136,-142C136,-142 106,-142 106,-142 100,-142 94,-136 94,-130 94,-130 94,-118 94,-118 94,-112 100,-106 106,-106 106,-106 136,-106 136,-106 142,-106 148,-112 148,-118 148,-118 148,-130 148,-130 148,-136 142,-142 136,-142"/>
<text text-anchor="middle" x="121" y="-121.8" font-family="Consolas" font-size="9.00">疑问</text>
</g>
<!-- reviewing&#45;&gt;question -->
<g id="edge5" class="edge">
<title>reviewing&#45;&gt;question</title>
<path fill="none" stroke="cadetblue" d="M175.2,-177.7C166.4,-169.14 155.62,-158.66 146,-149.3"/>
<polygon fill="cadetblue" stroke="cadetblue" points="148.2,-146.57 138.59,-142.1 143.32,-151.58 148.2,-146.57"/>
</g>
<!-- approved -->
<g id="node6" class="node">
<title>approved</title>
<path fill="#a6cee3" stroke="#a6cee3" d="M208,-142C208,-142 178,-142 178,-142 172,-142 166,-136 166,-130 166,-130 166,-118 166,-118 166,-112 172,-106 178,-106 178,-106 208,-106 208,-106 214,-106 220,-112 220,-118 220,-118 220,-130 220,-130 220,-136 214,-142 208,-142"/>
<text text-anchor="middle" x="193" y="-121.8" font-family="Consolas" font-size="9.00">批准</text>
</g>
<!-- reviewing&#45;&gt;approved -->
<g id="edge4" class="edge">
<title>reviewing&#45;&gt;approved</title>
<path fill="none" stroke="cadetblue" d="M193,-177.7C193,-169.98 193,-160.71 193,-152.11"/>
<polygon fill="cadetblue" stroke="cadetblue" points="196.5,-152.1 193,-142.1 189.5,-152.1 196.5,-152.1"/>
</g>
<!-- answer -->
<g id="node5" class="node">
<title>answer</title>
<path fill="#b2df8a" stroke="#b2df8a" d="M182,-70C182,-70 152,-70 152,-70 146,-70 140,-64 140,-58 140,-58 140,-46 140,-46 140,-40 146,-34 152,-34 152,-34 182,-34 182,-34 188,-34 194,-40 194,-46 194,-46 194,-58 194,-58 194,-64 188,-70 182,-70"/>
<text text-anchor="middle" x="167" y="-49.8" font-family="Consolas" font-size="9.00">解释</text>
</g>
<!-- question&#45;&gt;answer -->
<g id="edge7" class="edge">
<title>question&#45;&gt;answer</title>
<path fill="none" stroke="cadetblue" d="M132.37,-105.7C137.72,-97.56 144.2,-87.69 150.11,-78.7"/>
<polygon fill="cadetblue" stroke="cadetblue" points="153.19,-80.38 155.76,-70.1 147.34,-76.54 153.19,-80.38"/>
</g>
<!-- answer&#45;&gt;reviewing -->
<g id="edge6" class="edge">
<title>answer&#45;&gt;reviewing</title>
<path fill="none" stroke="cadetblue" d="M194.24,-68.46C207.35,-77.54 221.77,-90.31 229,-106 238.71,-127.08 227.21,-151.55 214.7,-169.49"/>
<polygon fill="cadetblue" stroke="cadetblue" points="211.73,-167.62 208.57,-177.73 217.35,-171.8 211.73,-167.62"/>
</g>
<!-- reviewer -->
<g id="node7" class="node">
<title>reviewer</title>
<ellipse fill="#a6cee3" stroke="#a6cee3" cx="291" cy="-268" rx="27" ry="18"/>
<text text-anchor="middle" x="291" y="-265.8" font-family="Consolas" font-size="9.00">审核者</text>
</g>
<!-- reviewer&#45;&gt;reviewing -->
<g id="edge2" class="edge">
<title>reviewer&#45;&gt;reviewing</title>
<path fill="none" stroke="cadetblue" d="M273.03,-254.16C259.78,-244.7 241.41,-231.58 225.6,-220.29"/>
<polygon fill="cadetblue" stroke="cadetblue" points="227.31,-217.21 217.14,-214.24 223.24,-222.9 227.31,-217.21"/>
</g>
</g>
</svg>
