<?xml version="1.0" encoding="UTF-8" standalone="no"?>
<!DOCTYPE svg PUBLIC "-//W3C//DTD SVG 1.1//EN"
 "http://www.w3.org/Graphics/SVG/1.1/DTD/svg11.dtd">
<!-- Generated by graphviz version 2.43.0 (0)
 -->
<!-- Title: process&#45;feature&#45;management Pages: 1 -->
<svg width="240pt" height="554pt"
 viewBox="0.00 0.00 240.00 553.60" xmlns="http://www.w3.org/2000/svg" xmlns:xlink="http://www.w3.org/1999/xlink">
<g id="graph0" class="graph" transform="scale(1 1) rotate(0) translate(4 549.6)">
<title>process&#45;feature&#45;management</title>
<polygon fill="cornsilk" stroke="transparent" points="-4,4 -4,-549.6 236,-549.6 236,4 -4,4"/>
<text text-anchor="middle" x="116" y="-6.8" font-family="Consolas" font-size="9.00">功能开发流程</text>
<g id="clust1" class="cluster">
<title>cluster0</title>
<path fill="cornsilk" stroke="cadetblue" d="M20,-26C20,-26 212,-26 212,-26 218,-26 224,-32 224,-38 224,-38 224,-525.6 224,-525.6 224,-531.6 218,-537.6 212,-537.6 212,-537.6 20,-537.6 20,-537.6 14,-537.6 8,-531.6 8,-525.6 8,-525.6 8,-38 8,-38 8,-32 14,-26 20,-26"/>
</g>
<!-- start -->
<g id="node1" class="node">
<title>start</title>
<ellipse fill="#b2df8a" stroke="#b2df8a" cx="105" cy="-527.8" rx="1.8" ry="1.8"/>
</g>
<!-- unassign -->
<g id="node2" class="node">
<title>unassign</title>
<path fill="#a6cee3" stroke="#a6cee3" d="M141,-480C141,-480 69,-480 69,-480 63,-480 57,-474 57,-468 57,-468 57,-456 57,-456 57,-450 63,-444 69,-444 69,-444 141,-444 141,-444 147,-444 153,-450 153,-456 153,-456 153,-468 153,-468 153,-474 147,-480 141,-480"/>
<text text-anchor="middle" x="105" y="-459.8" font-family="Consolas" font-size="9.00">unassign(未分配)</text>
</g>
<!-- start&#45;&gt;unassign -->
<g id="edge1" class="edge">
<title>start&#45;&gt;unassign</title>
<path fill="none" stroke="cadetblue" d="M105,-525.69C105,-521.41 105,-505.4 105,-490.64"/>
<polygon fill="cadetblue" stroke="cadetblue" points="108.5,-490.29 105,-480.29 101.5,-490.29 108.5,-490.29"/>
<text text-anchor="middle" x="133" y="-500.8" font-family="Consolas" font-size="9.00">开发(任何人)</text>
</g>
<!-- assigned -->
<g id="node3" class="node">
<title>assigned</title>
<path fill="#a6cee3" stroke="#a6cee3" d="M141,-398C141,-398 69,-398 69,-398 63,-398 57,-392 57,-386 57,-386 57,-374 57,-374 57,-368 63,-362 69,-362 69,-362 141,-362 141,-362 147,-362 153,-368 153,-374 153,-374 153,-386 153,-386 153,-392 147,-398 141,-398"/>
<text text-anchor="middle" x="105" y="-377.8" font-family="Consolas" font-size="9.00">assigned(已分配)</text>
</g>
<!-- unassign&#45;&gt;assigned -->
<g id="edge2" class="edge">
<title>unassign&#45;&gt;assigned</title>
<path fill="none" stroke="cadetblue" d="M105,-443.64C105,-433.3 105,-419.94 105,-408.22"/>
<polygon fill="cadetblue" stroke="cadetblue" points="108.5,-408.05 105,-398.05 101.5,-408.05 108.5,-408.05"/>
<text text-anchor="middle" x="137.5" y="-418.8" font-family="Consolas" font-size="9.00">分配(开发经理)</text>
</g>
<!-- in process -->
<g id="node5" class="node">
<title>in process</title>
<path fill="#a6cee3" stroke="#a6cee3" d="M146.5,-316C146.5,-316 63.5,-316 63.5,-316 57.5,-316 51.5,-310 51.5,-304 51.5,-304 51.5,-292 51.5,-292 51.5,-286 57.5,-280 63.5,-280 63.5,-280 146.5,-280 146.5,-280 152.5,-280 158.5,-286 158.5,-292 158.5,-292 158.5,-304 158.5,-304 158.5,-310 152.5,-316 146.5,-316"/>
<text text-anchor="middle" x="105" y="-295.8" font-family="Consolas" font-size="9.00">in process(工作中)</text>
</g>
<!-- assigned&#45;&gt;in process -->
<g id="edge3" class="edge">
<title>assigned&#45;&gt;in process</title>
<path fill="none" stroke="cadetblue" d="M105,-361.64C105,-351.3 105,-337.94 105,-326.22"/>
<polygon fill="cadetblue" stroke="cadetblue" points="108.5,-326.05 105,-316.05 101.5,-326.05 108.5,-326.05"/>
<text text-anchor="middle" x="128.5" y="-336.8" font-family="Consolas" font-size="9.00">工作(开发)</text>
</g>
<!-- rejected -->
<g id="node4" class="node">
<title>rejected</title>
<path fill="#fb9a99" stroke="#fb9a99" d="M100,-70C100,-70 28,-70 28,-70 22,-70 16,-64 16,-58 16,-58 16,-46 16,-46 16,-40 22,-34 28,-34 28,-34 100,-34 100,-34 106,-34 112,-40 112,-46 112,-46 112,-58 112,-58 112,-64 106,-70 100,-70"/>
<text text-anchor="middle" x="64" y="-49.8" font-family="Consolas" font-size="9.00">rejected(被拒绝)</text>
</g>
<!-- ready to test -->
<g id="node6" class="node">
<title>ready to test</title>
<path fill="#fdbf6f" stroke="#fdbf6f" d="M154,-234C154,-234 56,-234 56,-234 50,-234 44,-228 44,-222 44,-222 44,-210 44,-210 44,-204 50,-198 56,-198 56,-198 154,-198 154,-198 160,-198 166,-204 166,-210 166,-210 166,-222 166,-222 166,-228 160,-234 154,-234"/>
<text text-anchor="middle" x="105" y="-213.8" font-family="Consolas" font-size="9.00">ready to test(已修复)</text>
</g>
<!-- in process&#45;&gt;ready to test -->
<g id="edge4" class="edge">
<title>in process&#45;&gt;ready to test</title>
<path fill="none" stroke="cadetblue" d="M105,-279.64C105,-269.3 105,-255.94 105,-244.22"/>
<polygon fill="cadetblue" stroke="cadetblue" points="108.5,-244.05 105,-234.05 101.5,-244.05 108.5,-244.05"/>
<text text-anchor="middle" x="128.5" y="-254.8" font-family="Consolas" font-size="9.00">解决(开发)</text>
</g>
<!-- testing -->
<g id="node7" class="node">
<title>testing</title>
<path fill="#fdbf6f" stroke="#fdbf6f" d="M138.5,-152C138.5,-152 71.5,-152 71.5,-152 65.5,-152 59.5,-146 59.5,-140 59.5,-140 59.5,-128 59.5,-128 59.5,-122 65.5,-116 71.5,-116 71.5,-116 138.5,-116 138.5,-116 144.5,-116 150.5,-122 150.5,-128 150.5,-128 150.5,-140 150.5,-140 150.5,-146 144.5,-152 138.5,-152"/>
<text text-anchor="middle" x="105" y="-131.8" font-family="Consolas" font-size="9.00">testing(测试中)</text>
</g>
<!-- ready to test&#45;&gt;testing -->
<g id="edge5" class="edge">
<title>ready to test&#45;&gt;testing</title>
<path fill="none" stroke="cadetblue" d="M105,-197.64C105,-187.3 105,-173.94 105,-162.22"/>
<polygon fill="cadetblue" stroke="cadetblue" points="108.5,-162.05 105,-152.05 101.5,-162.05 108.5,-162.05"/>
<text text-anchor="middle" x="128.5" y="-172.8" font-family="Consolas" font-size="9.00">工作(测试)</text>
</g>
<!-- testing&#45;&gt;rejected -->
<g id="edge7" class="edge">
<title>testing&#45;&gt;rejected</title>
<path fill="none" stroke="cadetblue" d="M96.1,-115.64C90.64,-104.98 83.54,-91.12 77.4,-79.15"/>
<polygon fill="cadetblue" stroke="cadetblue" points="80.41,-77.35 72.74,-70.05 74.18,-80.55 80.41,-77.35"/>
<text text-anchor="middle" x="109.5" y="-90.8" font-family="Consolas" font-size="9.00">拒绝(测试)</text>
</g>
<!-- closed -->
<g id="node8" class="node">
<title>closed</title>
<path fill="#b2df8a" stroke="#b2df8a" d="M204,-70C204,-70 142,-70 142,-70 136,-70 130,-64 130,-58 130,-58 130,-46 130,-46 130,-40 136,-34 142,-34 142,-34 204,-34 204,-34 210,-34 216,-40 216,-46 216,-46 216,-58 216,-58 216,-64 210,-70 204,-70"/>
<text text-anchor="middle" x="173" y="-49.8" font-family="Consolas" font-size="9.00">closed(已关闭)</text>
</g>
<!-- testing&#45;&gt;closed -->
<g id="edge6" class="edge">
<title>testing&#45;&gt;closed</title>
<path fill="none" stroke="cadetblue" d="M121.18,-115.76C126.32,-110.16 131.97,-103.88 137,-98 142.4,-91.69 148.08,-84.75 153.29,-78.24"/>
<polygon fill="cadetblue" stroke="cadetblue" points="156.11,-80.32 159.59,-70.31 150.63,-75.96 156.11,-80.32"/>
<text text-anchor="middle" x="168.5" y="-90.8" font-family="Consolas" font-size="9.00">验证(测试)</text>
</g>
</g>
</svg>
